<?xml version="1.0" encoding="UTF-8" standalone="no"?>
<!-- Created with Inkscape (http://www.inkscape.org/) -->

<svg
   version="1.1"
   id="svg132"
   width="1460.8994"
   height="335.48071"
   viewBox="0 0 1460.8994 335.48071"
   sodipodi:docname="OA logo redone.svg"
   xml:space="preserve"
   inkscape:version="1.2.2 (b0a84865, 2022-12-01)"
   xmlns:inkscape="http://www.inkscape.org/namespaces/inkscape"
   xmlns:sodipodi="http://sodipodi.sourceforge.net/DTD/sodipodi-0.dtd"
   xmlns:xlink="http://www.w3.org/1999/xlink"
   xmlns="http://www.w3.org/2000/svg"
   xmlns:svg="http://www.w3.org/2000/svg"><defs
     id="defs136"><linearGradient
       inkscape:collect="always"
       id="linearGradient2327"><stop
         style="stop-color:#555659;stop-opacity:0.59654176;"
         offset="0"
         id="stop2323" /><stop
         style="stop-color:#555659;stop-opacity:0;"
         offset="1"
         id="stop2325" /></linearGradient><rect
       x="-1513.9517"
       y="383.83881"
       width="1372.6875"
       height="567.91022"
       id="rect380" /><radialGradient
       inkscape:collect="always"
       xlink:href="#linearGradient2327"
       id="radialGradient382"
       gradientUnits="userSpaceOnUse"
       gradientTransform="matrix(1.3176775,0,0,0.14269626,-610.18468,2562.379)"
       cx="-4979.1958"
       cy="1720.4982"
       fx="-4979.1958"
       fy="1720.4982"
       r="216.15202" /></defs><sodipodi:namedview
     id="namedview134"
     pagecolor="#505050"
     bordercolor="#ffffff"
     borderopacity="1"
     inkscape:showpageshadow="0"
     inkscape:pageopacity="0"
     inkscape:pagecheckerboard="1"
     inkscape:deskcolor="#505050"
     showgrid="false"
     inkscape:zoom="0.19452145"
     inkscape:cx="-6526.2725"
     inkscape:cy="3112.7672"
     inkscape:window-width="1099"
     inkscape:window-height="1057"
     inkscape:window-x="228"
     inkscape:window-y="32"
     inkscape:window-maximized="0"
     inkscape:current-layer="layer2" /><g
     inkscape:groupmode="layer"
     id="layer2"
     inkscape:label="Image 1"
     transform="translate(7455.9775,-2503.251)"><path
       id="path370"
       style="fill:#282e59;fill-opacity:1;stroke-width:5.00001;stroke-linecap:round;stroke-linejoin:round"
       d="m -7264.5284,2503.251 a 92.024102,73.629161 0 0 0 -92.0238,73.6266 l 1.3456,157.3835 a 92.024102,73.629161 0 0 0 92.0239,73.6266 92.024102,73.629161 0 0 0 92.0238,-73.6266 l -1.3457,-157.3835 a 92.024102,73.629161 0 0 0 -92.0238,-73.6266 z m -0.3339,7.246 a 38.274488,30.501708 0 0 1 38.2764,30.5037 l 2.0561,227.5941 a 38.274488,30.501708 0 0 1 -38.2763,30.4989 38.274488,30.501708 0 0 1 -38.272,-30.4989 l -2.0563,-227.5941 a 38.274488,30.501708 0 0 1 38.2721,-30.5037 z"
       inkscape:export-filename="../../../Applications/PycharmProjectsAlt/flaskProject1/static/images/oacon.logo.svg"
       inkscape:export-xdpi="96"
       inkscape:export-ydpi="96" /><ellipse
       style="opacity:0.312088;fill:url(#radialGradient382);fill-opacity:1;stroke-width:5;stroke-linecap:round;stroke-linejoin:round"
       id="ellipse372"
       cx="-7171.1587"
       cy="2807.8877"
       rx="284.81866"
       ry="30.844086" /></g><g
     inkscape:groupmode="layer"
     id="layer1"
     inkscape:label="layer"
     transform="translate(7455.9775,-2503.251)"><path
       id="path374"
       style="fill:#4d4b4b;fill-opacity:1;stroke-width:5;stroke-linecap:round;stroke-linejoin:round"
       d="m -7144.2431,2503.251 -86.9844,226.6114 -30.791,78.0253 h 72.3554 1.6329 l 51.2539,-149.705 65.707,149.705 h 73.1719 z" /><g
       aria-label="Consultancy Group"
       transform="matrix(1.0710505,0,0,1.0710505,-5349.1547,2196.438)"
       id="text378"
       style="font-weight:800;font-size:96px;font-family:Manrope;-inkscape-font-specification:'Manrope, Ultra-Bold';white-space:pre;shape-inside:url(#rect380);display:inline;fill:#282e59;stroke:#282e59;stroke-width:4.66831;stroke-linecap:round;stroke-linejoin:round"><path
         id="path7570"
         d="m -1477.5666,400.19439 c -6.912,0 -12.8797,1.5035 -17.9037,4.51149 -4.992,3.008 -8.8487,7.21651 -11.5687,12.62451 -2.688,5.40799 -4.0319,11.69674 -4.0319,18.86473 0,7.16799 1.3439,13.45491 4.0319,18.8629 2.72,5.408 6.5767,9.61651 11.5687,12.62451 5.024,3.008 10.9917,4.51149 17.9037,4.51149 7.936,0 14.592,-1.96687 19.968,-5.90286 5.408,-3.936 9.2148,-9.26534 11.4228,-15.98533 l -13.1515,-3.64712 c -1.28,4.15999 -3.4391,7.40728 -6.4791,9.74328 -3.04,2.336 -6.9602,3.50488 -11.7602,3.50488 -4.384,0 -8.0484,-0.97664 -10.9924,-2.92864 -2.912,-1.95199 -5.1038,-4.70326 -6.5758,-8.25525 -1.472,-3.552 -2.2083,-7.72787 -2.2083,-12.52786 0,-4.8 0.7363,-8.97586 2.2083,-12.52786 1.472,-3.552 3.6638,-6.30508 6.5758,-8.25708 2.944,-1.952 6.6084,-2.92864 10.9924,-2.92864 4.8,0 8.7202,1.16889 11.7602,3.50489 3.04,2.30399 5.1991,5.55128 6.4791,9.74328 l 13.1515,-3.64712 c -2.208,-6.72 -6.0148,-12.04751 -11.4228,-15.98351 -5.376,-3.93599 -12.032,-5.90469 -19.968,-5.90469 z m 277.7264,0 v 70.56084 h 13.0567 v -70.56084 z m 342.91137,0 c -6.01599,0 -11.5031,1.40737 -16.4631,4.22337 -4.92799,2.816 -8.86355,6.91298 -11.80755,12.28897 -2.912,5.344 -4.36925,11.8404 -4.36925,19.48839 0,5.85599 0.8651,11.02391 2.5931,15.50391 1.76,4.47999 4.14401,8.23872 7.152,11.27872 3.04,3.03999 6.5276,5.34511 10.46359,6.91311 3.936,1.536 8.07922,2.30316 12.43121,2.30316 6.656,0 12.4333,-1.44002 17.32929,-4.32001 4.896,-2.912 8.68737,-6.92827 11.37537,-12.04827 2.688,-5.11999 4.03189,-10.99159 4.03189,-17.61559 0,-0.16 -0.0154,-0.76756 -0.0474,-1.82356 -0.032,-1.056 -0.0801,-1.79233 -0.14406,-2.20833 h -24.86424 v 10.08064 h 10.94318 c -0.704,3.648 -1.8883,6.63957 -3.55229,8.97556 -1.664,2.336 -3.71158,4.04715 -6.14358,5.13515 -2.4,1.088 -5.08778,1.60126 -8.06378,1.53726 -4.384,-0.064 -8.03119,-1.07329 -10.94319,-3.02529 -2.91199,-1.95199 -5.10558,-4.68784 -6.57758,-8.20784 -1.44,-3.52 -2.15909,-7.67863 -2.15909,-12.47862 0,-4.8 0.71909,-8.9931 2.15909,-12.5771 1.472,-3.58399 3.66559,-6.35249 6.57758,-8.30449 2.912,-1.952 6.55919,-2.89599 10.94319,-2.83199 4.41599,0.032 8.03236,1.26436 10.84836,3.69636 2.848,2.4 4.89557,5.61646 6.14357,9.64846 l 13.34482,-1.92021 c -1.728,-7.552 -5.13671,-13.39095 -10.22471,-17.51895 -5.08799,-4.12799 -12.08042,-6.19281 -20.97641,-6.19281 z m -312.38317,4.32002 v 14.40065 h -8.8315 v 10.07882 h 8.8315 v 19.77651 c 0,3.104 0.033,5.88791 0.097,8.3519 0.064,2.432 0.735,4.83142 2.015,7.19942 1.408,2.528 3.4574,4.36792 6.1454,5.51992 2.72,1.12 5.7905,1.71214 9.2145,1.77614 3.456,0.096 6.9762,-0.19054 10.5602,-0.86254 v -10.84836 c -3.072,0.416 -5.8713,0.54295 -8.3993,0.38295 -2.528,-0.16 -4.3679,-1.15205 -5.5199,-2.97605 -0.608,-0.96 -0.9445,-2.2386 -1.0085,-3.8386 -0.032,-1.63199 -0.047,-3.4565 -0.047,-5.4725 v -19.00879 h 14.9751 v -10.07882 h -14.9751 v -14.40065 z m -177.7916,12.86339 c -5.088,0 -9.3119,1.10541 -12.6719,3.31341 -1.5619,1.03624 -2.9332,2.2294 -4.1286,3.56871 v -5.34486 h -11.6161 v 51.84017 h 13.2482 v -26.30485 c 0,-3.232 0.3519,-5.82367 1.0559,-7.77566 0.7359,-1.952 1.6645,-3.42467 2.7845,-4.41667 1.12,-1.024 2.3197,-1.71227 3.5997,-2.06427 1.28,-0.352 2.4797,-0.52701 3.5997,-0.52701 2.784,0 4.9296,0.62298 6.4336,1.87098 1.536,1.24799 2.6395,2.80137 3.3115,4.65737 0.672,1.856 1.072,3.71133 1.2,5.56733 0.128,1.824 0.1914,3.32749 0.1914,4.51149 v 24.48129 h 13.2482 V 441.6658 c 0,-0.864 -0.063,-2.23872 -0.1915,-4.12672 -0.128,-1.888 -0.4971,-3.96822 -1.1051,-6.24022 -0.608,-2.304 -1.6308,-4.513 -3.0708,-6.62499 -1.408,-2.112 -3.3921,-3.8558 -5.9521,-5.2318 -2.56,-1.376 -5.8726,-2.06427 -9.9366,-2.06427 z m 301.6314,0 c -5.088,0 -9.3119,1.10541 -12.6719,3.31341 -1.5619,1.03624 -2.9332,2.2294 -4.1285,3.56871 v -5.34486 h -11.6161 v 51.84017 h 13.2481 v -26.30485 c 0,-3.232 0.3519,-5.82367 1.0559,-7.77566 0.736,-1.952 1.6646,-3.42467 2.7846,-4.41667 1.12,-1.024 2.3197,-1.71227 3.5997,-2.06427 1.28,-0.352 2.4797,-0.52701 3.5997,-0.52701 2.784,0 4.9295,0.62298 6.4335,1.87098 1.536,1.24799 2.6396,2.80137 3.3116,4.65737 0.672,1.856 1.0719,3.71133 1.1999,5.56733 0.128,1.824 0.1915,3.32749 0.1915,4.51149 v 24.48129 h 13.2481 V 441.6658 c 0,-0.864 -0.063,-2.23872 -0.1914,-4.12672 -0.128,-1.888 -0.4971,-3.96822 -1.1051,-6.24022 -0.608,-2.304 -1.6309,-4.513 -3.0709,-6.62499 -1.408,-2.112 -3.3921,-3.8558 -5.9521,-5.2318 -2.56,-1.376 -5.8726,-2.06427 -9.9366,-2.06427 z m -366.8146,0.0967 c -5.12,0 -9.6477,1.15165 -13.5837,3.45565 -3.936,2.30399 -7.0255,5.52046 -9.2655,9.64845 -2.24,4.096 -3.359,8.8486 -3.359,14.2566 0,5.34399 1.0882,10.07936 3.2642,14.20735 2.208,4.096 5.2803,7.31246 9.2163,9.64846 3.936,2.336 8.5117,3.50306 13.7277,3.50306 5.184,0 9.7444,-1.15165 13.6804,-3.45565 3.968,-2.33599 7.0557,-5.55246 9.2637,-9.64845 2.24,-4.128 3.359,-8.87878 3.359,-14.25477 0,-5.344 -1.1036,-10.06395 -3.3116,-14.15995 -2.208,-4.12799 -5.2957,-7.35987 -9.2637,-9.69587 -3.936,-2.33599 -8.5118,-3.50488 -13.7278,-3.50488 z m 117.4081,0 c -4.192,0 -7.841,0.67286 -10.945,2.01686 -3.072,1.312 -5.456,3.19998 -7.152,5.66398 -1.696,2.43199 -2.5439,5.31203 -2.5439,8.64002 0,2.656 0.5595,4.92665 1.6795,6.81465 1.12,1.856 2.9445,3.45561 5.4725,4.79961 2.528,1.344 5.9041,2.56094 10.1281,3.64894 3.744,0.992 6.4953,1.79181 8.2553,2.39981 1.792,0.608 2.9454,1.23279 3.4574,1.87279 0.512,0.608 0.7677,1.42322 0.7677,2.44722 0,1.632 -0.6402,2.91242 -1.9202,3.84042 -1.28,0.896 -3.1045,1.34396 -5.4725,1.34396 -2.88,0 -5.264,-0.68827 -7.152,-2.06427 -1.856,-1.376 -3.0557,-3.27939 -3.5997,-5.71139 l -13.3448,2.01504 c 0.864,5.40799 3.2961,9.60109 7.2961,12.57709 4.032,2.944 9.3132,4.41484 15.8412,4.41484 6.784,0 12.0961,-1.5189 15.9361,-4.5589 3.84,-3.04 5.7588,-7.21586 5.7588,-12.52786 0,-2.688 -0.5441,-4.9777 -1.6321,-6.8657 -1.088,-1.92 -2.8317,-3.55044 -5.2317,-4.89444 -2.368,-1.376 -5.5192,-2.57753 -9.4552,-3.60153 -4.032,-1.024 -7.0408,-1.85463 -9.0248,-2.49463 -1.952,-0.64 -3.2478,-1.2648 -3.8878,-1.8728 -0.608,-0.608 -0.9118,-1.35974 -0.9118,-2.25574 0,-1.504 0.7209,-2.65565 2.1609,-3.45565 1.472,-0.8 3.4062,-1.12101 5.8062,-0.96101 2.464,0.192 4.4173,0.84944 5.8573,1.96944 1.44,1.12 2.2724,2.6389 2.4964,4.5589 l 13.343,-2.3998 c -0.448,-3.136 -1.6477,-5.85644 -3.5997,-8.16043 -1.92,-2.304 -4.4482,-4.07862 -7.5842,-5.32662 -3.136,-1.248 -6.7351,-1.8728 -10.7991,-1.8728 z m 186.2384,0 c -6.24,0 -11.1676,1.34389 -14.7836,4.03189 -3.616,2.688 -6.0807,6.17559 -7.3927,10.46359 l 11.8094,3.74377 c 0.832,-2.368 2.2874,-4.01567 4.3674,-4.94367 2.08,-0.928 4.0795,-1.39138 5.9995,-1.39138 3.456,0 5.9207,0.7191 7.3927,2.1591 1.1551,1.12998 1.8502,2.77044 2.0989,4.90537 -2.1168,0.32052 -4.3732,0.66213 -6.2748,0.9519 -3.36,0.48 -6.3688,0.99144 -9.0248,1.53544 -2.656,0.544 -4.9439,1.1688 -6.8639,1.8728 -2.784,1.02399 -5.0084,2.30259 -6.6724,3.83859 -1.632,1.504 -2.8145,3.2478 -3.5505,5.23179 -0.736,1.984 -1.1051,4.17759 -1.1051,6.57758 0,2.88 0.6556,5.51973 1.9676,7.91973 1.344,2.36799 3.2973,4.27139 5.8573,5.71139 2.592,1.408 5.7432,2.11168 9.4552,2.11168 4.48,0 8.177,-0.76716 11.089,-2.30316 2.3223,-1.23684 4.5124,-3.08112 6.5758,-5.51262 v 6.37699 h 11.4228 v -31.68071 c 0,-2.368 -0.096,-4.5117 -0.2881,-6.4317 -0.192,-1.91999 -0.7996,-3.84062 -1.8236,-5.76062 -1.824,-3.456 -4.5118,-5.88807 -8.0638,-7.29607 -3.552,-1.408 -7.6163,-2.11168 -12.1923,-2.11168 z m 117.98434,0 c -5.28,0 -9.85574,1.1843 -13.72774,3.5523 -3.872,2.36799 -6.8808,5.61528 -9.0248,9.74328 -2.112,4.12799 -3.1675,8.81712 -3.1675,14.06512 0,5.18399 1.0247,9.83865 3.0727,13.96664 2.0479,4.128 4.9915,7.39252 8.8315,9.79252 3.8399,2.4 8.44837,3.59971 13.82436,3.59971 6.016,0 11.07056,-1.48808 15.16655,-4.46408 4.096,-2.97599 6.88173,-7.21533 8.35373,-12.71933 l -13.34481,-2.78457 c -0.768,2.49599 -1.91965,4.41662 -3.45565,5.76062 -1.536,1.344 -3.77582,2.01504 -6.71982,2.01504 -3.93599,0 -6.91215,-1.39196 -8.92815,-4.17596 -1.98401,-2.81599 -2.97601,-6.4786 -2.97601,-10.99059 0,-2.88 0.4153,-5.45625 1.2473,-7.72825 0.832,-2.304 2.12782,-4.11309 3.88781,-5.42509 1.76,-1.344 4.01705,-2.01504 6.76905,-2.01504 2.4,0 4.5437,0.75175 6.4317,2.25575 1.92,1.504 3.26389,3.59964 4.03189,6.28763 l 13.05669,-3.45564 c -1.152,-5.344 -3.80896,-9.55251 -7.96896,-12.62451 -4.12799,-3.104 -9.24785,-4.65555 -15.35984,-4.65555 z m 237.98371,0 c -5.11999,0 -9.6477,1.15165 -13.5837,3.45565 -3.93599,2.30399 -7.02551,5.52046 -9.26551,9.64845 -2.23999,4.096 -3.35899,8.8486 -3.35899,14.2566 0,5.34399 1.08817,10.07936 3.26417,14.20735 2.208,4.096 5.28028,7.31246 9.21627,9.64846 3.936,2.336 8.51177,3.50306 13.72776,3.50306 5.184,0 9.74435,-1.15165 13.68035,-3.45565 3.968,-2.33599 7.05569,-5.55246 9.26369,-9.64845 2.23999,-4.128 3.35899,-8.87878 3.35899,-14.25477 0,-5.344 -1.10358,-10.06395 -3.31158,-14.15995 -2.208,-4.12799 -5.29569,-7.35987 -9.26369,-9.69587 -3.93599,-2.33599 -8.51176,-3.50488 -13.72776,-3.50488 z m 122.6873,0 c -4.92799,0 -9.07121,1.19971 -12.4312,3.59971 -0.31341,0.22386 -0.61257,0.46317 -0.91178,0.70207 v -2.86117 h -11.52126 v 74.87903 h 13.15334 v -24.86607 c 3.36474,2.16833 7.48677,3.266 12.3838,3.266 4.76799,0 8.94386,-1.19971 12.52786,-3.59971 3.58399,-2.4 6.3679,-5.66452 8.3519,-9.79252 2.016,-4.12799 3.02346,-8.78265 3.02346,-13.96664 0,-5.28 -1.0247,-9.96913 -3.07269,-14.06512 -2.016,-4.128 -4.86339,-7.37529 -8.54338,-9.74328 -3.68,-2.368 -8.00005,-3.5523 -12.96005,-3.5523 z m -156.5271,1.27285 c -0.784,-0.016 -1.5684,0.007 -2.3524,0.0711 -1.56799,0.096 -3.08872,0.36714 -4.56072,0.81514 -1.472,0.416 -2.83131,1.00814 -4.0793,1.77614 -1.632,0.96 -3.00855,2.17695 -4.12854,3.64895 -0.53138,0.69838 -1.00826,1.43609 -1.43879,2.2065 v -8.35008 h -11.52126 v 51.84017 h 13.15334 V 444.2589 c 0,-1.984 0.27114,-3.76044 0.81513,-5.32844 0.544,-1.6 1.34381,-2.97654 2.39981,-4.12854 1.056,-1.184 2.35183,-2.12799 3.88783,-2.83199 1.536,-0.736 3.24897,-1.16673 5.13697,-1.29473 1.92,-0.16 3.60032,-0.0176 5.04032,0.43036 v -12.1905 c -0.784,-0.096 -1.56839,-0.15176 -2.35239,-0.16776 z m -476.30295,0.16776 v 29.08761 c 0,0.864 0.063,2.24054 0.1915,4.12854 0.128,1.888 0.4952,3.98364 1.1032,6.28764 0.608,2.27199 1.6173,4.46376 3.0253,6.57575 1.44,2.112 3.4395,3.8558 5.9995,5.2318 2.56,1.376 5.8726,2.06427 9.9366,2.06427 5.088,0 9.2947,-1.10359 12.6227,-3.31159 1.5825,-1.03994 2.9696,-2.23993 4.1759,-3.58512 v 5.36127 h 11.5213 v -51.84017 h -13.1534 v 26.30303 c 0,3.2 -0.3672,5.79167 -1.1032,7.77566 -0.704,1.952 -1.6154,3.44008 -2.7354,4.46408 -1.12,0.992 -2.3215,1.66486 -3.6015,2.01686 -1.28,0.352 -2.4797,0.52701 -3.5997,0.52701 -2.784,0 -4.9431,-0.62298 -6.4791,-1.87098 -1.504,-1.248 -2.5922,-2.79955 -3.2642,-4.65555 -0.672,-1.85599 -1.0719,-3.69591 -1.1999,-5.51991 -0.128,-1.856 -0.1915,-3.37673 -0.1915,-4.56073 v -24.47947 z m 297.40623,0 20.91076,51.42987 -8.52697,23.44916 h 12.0975 l 29.27908,-74.87903 h -13.05669 l -13.53993,35.27313 -13.62747,-35.27313 z m 248.6406,0 v 29.08761 c 0,0.864 0.0635,2.24054 0.19147,4.12854 0.128,1.888 0.49526,3.98364 1.10326,6.28764 0.60799,2.27199 1.61728,4.46376 3.02528,6.57575 1.44,2.112 3.43952,3.8558 5.99951,5.2318 2.56,1.376 5.87259,2.06427 9.93658,2.06427 5.088,0 9.29469,-1.10359 12.62269,-3.31159 1.58253,-1.03994 2.96965,-2.23993 4.17595,-3.58512 v 5.36127 h 11.52125 v -51.84017 h -13.15334 v 26.30303 c 0,3.2 -0.36725,5.79167 -1.10325,7.77566 -0.704,1.952 -1.61534,3.44008 -2.73534,4.46408 -1.12,0.992 -2.31971,1.66486 -3.59971,2.01686 -1.28,0.352 -2.48153,0.52701 -3.60153,0.52701 -2.784,0 -4.94311,-0.62298 -6.47911,-1.87098 -1.504,-1.248 -2.59217,-2.79955 -3.26417,-4.65555 -0.672,-1.85599 -1.0719,-3.69591 -1.1999,-5.51991 -0.128,-1.856 -0.19148,-3.37673 -0.19148,-4.56073 v -24.47947 z m 84.86302,10.17547 c 2.91199,0 5.296,0.7191 7.152,2.15909 1.888,1.408 3.27995,3.31322 4.17595,5.71322 0.896,2.368 1.34397,4.99231 1.34397,7.87231 0,2.91199 -0.43073,5.56713 -1.29473,7.96713 -0.864,2.368 -2.19248,4.25598 -3.98448,5.66398 -1.792,1.408 -4.09712,2.11168 -6.91312,2.11168 -2.91199,0 -5.24794,-0.65562 -7.00794,-1.96762 -1.728,-1.312 -2.97577,-3.15192 -3.74377,-5.51992 -0.768,-2.36799 -1.15066,-5.11926 -1.15066,-8.25525 0,-3.136 0.38266,-5.88909 1.15066,-8.25708 0.768,-2.368 1.98495,-4.20792 3.64895,-5.51992 1.69599,-1.312 3.90317,-1.96762 6.62317,-1.96762 z m -780.38165,0.57624 c 4.128,0 7.2311,1.37655 9.3111,4.12854 2.112,2.752 3.1675,6.43184 3.1675,11.03984 0,4.44799 -1.0382,8.09518 -3.1182,10.94318 -2.048,2.816 -5.1684,4.22337 -9.3604,4.22337 -4.064,0 -7.1517,-1.35931 -9.2637,-4.07931 -2.08,-2.75199 -3.1201,-6.44725 -3.1201,-11.08724 0,-3.008 0.4308,-5.64955 1.2948,-7.92155 0.896,-2.272 2.2571,-4.04662 4.0811,-5.32662 1.824,-1.28 4.1599,-1.92021 7.0079,-1.92021 z m 659.61455,0 c 4.128,0 7.2311,1.37655 9.3111,4.12854 2.112,2.752 3.16935,6.43184 3.16935,11.03984 0,4.44799 -1.04012,8.09518 -3.12011,10.94318 -2.048,2.816 -5.16834,4.22337 -9.36034,4.22337 -4.06399,0 -7.15169,-1.35931 -9.26368,-4.07931 -2.08,-2.75199 -3.12011,-6.44725 -3.12011,-11.08724 0,-3.008 0.43072,-5.64955 1.29472,-7.92155 0.896,-2.272 2.25713,-4.04662 4.08113,-5.32662 1.824,-1.28 4.15994,-1.92021 7.00794,-1.92021 z m -346.59675,17.35847 c -0.03,0.9221 -0.076,1.92276 -0.155,3.08911 -0.096,1.856 -0.4805,3.48826 -1.1525,4.89626 -0.352,0.736 -1.0231,1.64734 -2.0151,2.73534 -0.96,1.088 -2.273,2.06464 -3.937,2.92864 -1.632,0.832 -3.647,1.24732 -6.0469,1.24732 -1.504,0 -2.7999,-0.22308 -3.8879,-0.67107 -1.088,-0.448 -1.9358,-1.08821 -2.5438,-1.92021 -0.576,-0.864 -0.8644,-1.8887 -0.8644,-3.0727 0,-0.864 0.175,-1.6484 0.527,-2.3524 0.384,-0.70399 0.9607,-1.34238 1.7287,-1.91838 0.8,-0.608 1.8401,-1.16932 3.1201,-1.68132 1.12,-0.416 2.4159,-0.79867 3.8879,-1.15067 1.472,-0.352 3.408,-0.73649 5.808,-1.15249 1.5148,-0.28276 3.4297,-0.61818 5.5309,-0.97743 z" /></g></g></svg>
