<?xml version="1.0" encoding="UTF-8" standalone="no"?>
<!-- Created with Inkscape (http://www.inkscape.org/) -->

<svg
   version="1.1"
   id="svg132"
   width="1458.3997"
   height="335.48071"
   viewBox="0 0 1458.3997 335.48071"
   sodipodi:docname="OA logo redone.svg"
   xml:space="preserve"
   inkscape:version="1.2.2 (b0a84865, 2022-12-01)"
   xmlns:inkscape="http://www.inkscape.org/namespaces/inkscape"
   xmlns:sodipodi="http://sodipodi.sourceforge.net/DTD/sodipodi-0.dtd"
   xmlns:xlink="http://www.w3.org/1999/xlink"
   xmlns="http://www.w3.org/2000/svg"
   xmlns:svg="http://www.w3.org/2000/svg"><defs
     id="defs136"><linearGradient
       inkscape:collect="always"
       id="linearGradient2327"><stop
         style="stop-color:#555659;stop-opacity:0.59654176;"
         offset="0"
         id="stop2323" /><stop
         style="stop-color:#555659;stop-opacity:0;"
         offset="1"
         id="stop2325" /></linearGradient><rect
       x="-1513.9517"
       y="383.83881"
       width="1372.6875"
       height="567.91022"
       id="rect3033" /><radialGradient
       inkscape:collect="always"
       xlink:href="#linearGradient2327"
       id="radialGradient3035"
       gradientUnits="userSpaceOnUse"
       gradientTransform="matrix(1.3176775,0,0,0.14269626,1594.3598,2562.379)"
       cx="-4979.1958"
       cy="1720.4982"
       fx="-4979.1958"
       fy="1720.4982"
       r="216.15202" /></defs><sodipodi:namedview
     id="namedview134"
     pagecolor="#505050"
     bordercolor="#ffffff"
     borderopacity="1"
     inkscape:showpageshadow="0"
     inkscape:pageopacity="0"
     inkscape:pagecheckerboard="1"
     inkscape:deskcolor="#505050"
     showgrid="false"
     inkscape:zoom="0.40813355"
     inkscape:cx="-2669.4693"
     inkscape:cy="1372.0999"
     inkscape:window-width="1728"
     inkscape:window-height="1080"
     inkscape:window-x="1920"
     inkscape:window-y="37"
     inkscape:window-maximized="0"
     inkscape:current-layer="layer2" /><g
     inkscape:groupmode="layer"
     id="layer2"
     inkscape:label="Image 1"
     transform="translate(5251.4331,-2503.251)"><path
       id="path3023"
       style="fill:#4d4b4b;fill-opacity:1;stroke-width:5.00001;stroke-linecap:round;stroke-linejoin:round"
       d="m -5059.9839,2503.251 a 92.024102,73.629161 0 0 0 -92.0238,73.6266 l 1.3456,157.3835 a 92.024102,73.629161 0 0 0 92.0239,73.6266 92.024102,73.629161 0 0 0 92.0238,-73.6266 l -1.3457,-157.3835 a 92.024102,73.629161 0 0 0 -92.0238,-73.6266 z m -0.3339,7.246 a 38.274488,30.501708 0 0 1 38.2764,30.5037 l 2.0561,227.5941 a 38.274488,30.501708 0 0 1 -38.2763,30.4989 38.274488,30.501708 0 0 1 -38.272,-30.4989 l -2.0563,-227.5941 a 38.274488,30.501708 0 0 1 38.2721,-30.5037 z"
       inkscape:export-filename="../../../Applications/PycharmProjectsAlt/flaskProject1/static/oacon.logo.svg"
       inkscape:export-xdpi="96"
       inkscape:export-ydpi="96" /><ellipse
       style="opacity:0.312088;fill:url(#radialGradient3035);fill-opacity:1;stroke-width:5;stroke-linecap:round;stroke-linejoin:round"
       id="ellipse3025"
       cx="-4966.6143"
       cy="2807.8877"
       rx="284.81866"
       ry="30.844086" /></g><g
     inkscape:groupmode="layer"
     id="layer1"
     inkscape:label="layer"
     transform="translate(5251.4331,-2503.251)"><path
       id="path3027"
       style="fill:#753103;fill-opacity:1;stroke-width:5;stroke-linecap:round;stroke-linejoin:round"
       d="m -4939.6986,2503.251 -86.9844,226.6114 -30.791,78.0253 h 72.3554 1.6329 l 51.2539,-149.705 65.707,149.705 h 73.1719 z" /><text
       xml:space="preserve"
       id="text3031"
       style="font-style:normal;font-variant:normal;font-weight:800;font-stretch:normal;font-size:96px;font-family:Manrope;-inkscape-font-specification:'Manrope, Ultra-Bold';font-variant-ligatures:normal;font-variant-caps:normal;font-variant-numeric:normal;font-variant-east-asian:normal;white-space:pre;shape-inside:url(#rect3033);fill:#753103;fill-opacity:1;stroke-width:4.66831;stroke-linecap:round;stroke-linejoin:round"
       transform="matrix(1.0710505,0,0,1.0710505,-3144.6102,2196.438)"><tspan
         x="-1513.9512"
         y="470.75444"
         id="tspan5489">Consultancy Group</tspan></text></g></svg>
